<?xml version="1.0" encoding="UTF-8" standalone="no"?>
<svg
   xmlns:dc="http://purl.org/dc/elements/1.1/"
   xmlns:cc="http://creativecommons.org/ns#"
   xmlns:rdf="http://www.w3.org/1999/02/22-rdf-syntax-ns#"
   xmlns:svg="http://www.w3.org/2000/svg"
   xmlns="http://www.w3.org/2000/svg"
   xmlns:xlink="http://www.w3.org/1999/xlink"
   id="svg8"
   version="1.1"
   viewBox="0 0 36.570976 36.570976"
   height="36.570976mm"
   width="36.570976mm">
  <defs
     id="defs2">
    <linearGradient
       id="linearGradient4791">
      <stop
         id="stop4787"
         offset="0"
         style="stop-color:#00ff4d;stop-opacity:1;" />
      <stop
         id="stop4789"
         offset="1"
         style="stop-color:#008000;stop-opacity:1" />
    </linearGradient>
    <linearGradient
       id="linearGradient4610">
      <stop
         id="stop4606"
         offset="0"
         style="stop-color:#7ec303;stop-opacity:1;" />
      <stop
         id="stop4608"
         offset="1"
         style="stop-color:#7ec303;stop-opacity:0;" />
    </linearGradient>
    <linearGradient
       gradientTransform="translate(67.464218,18.72345)"
       gradientUnits="userSpaceOnUse"
       y2="153.09578"
       x2="36.615906"
       y1="129.77655"
       x1="20.250296"
       id="linearGradient4612"
       xlink:href="#linearGradient4610" />
    <radialGradient
       gradientUnits="userSpaceOnUse"
       gradientTransform="matrix(1.7480305,1.7043801,-1.1159662,1.1445469,116.27051,-83.179559)"
       r="17.501181"
       fy="133.8466"
       fx="32.466949"
       cy="133.8466"
       cx="32.466949"
       id="radialGradient4793"
       xlink:href="#linearGradient4791" />
    <filter
       height="1.4394649"
       y="-0.21973243"
       width="1.4247845"
       x="-0.21239226"
       id="filter5595"
       style="color-interpolation-filters:sRGB">
      <feGaussianBlur
         id="feGaussianBlur5597"
         stdDeviation="2.5749941" />
    </filter>
    <filter
       height="1.09841"
       y="-0.049205005"
       width="1.1084801"
       x="-0.05424007"
       id="filter6495"
       style="color-interpolation-filters:sRGB">
      <feGaussianBlur
         id="feGaussianBlur6497"
         stdDeviation="0.52538581" />
    </filter>
    <linearGradient
       y2="153.09578"
       x2="36.615906"
       y1="129.77655"
       x1="20.250296"
       gradientTransform="translate(67.464218,18.72345)"
       gradientUnits="userSpaceOnUse"
       id="linearGradient6514"
       xlink:href="#linearGradient4610" />
  </defs>
  <metadata
     id="metadata5">
    <rdf:RDF>
      <cc:Work
         rdf:about="">
        <dc:format>image/svg+xml</dc:format>
        <dc:type
           rdf:resource="http://purl.org/dc/dcmitype/StillImage" />
        <dc:title></dc:title>
      </cc:Work>
    </rdf:RDF>
  </metadata>
  <g
     transform="translate(-68.100038,-124.89609)"
     id="layer1">
    <g
       transform="translate(-18.614475,-5.3184214)"
       id="g6512">
      <g
         id="g4619"
         transform="matrix(-1.1835933,0,0,1.1835933,150.17891,-5.2896332)"
         style="fill:#008000">
        <path
           style="fill:#008000;stroke-width:0.26458332"
           d="m 42.838449,133.41257 c 1.802261,-2.4186 1.13842,-4.89305 0.147168,-7.14953 2.461515,0.28341 5.006661,0.23319 6.808922,-2.18541 l -1.272946,-0.94856 c -0.284568,0.38189 -0.616976,0.69512 -0.960187,0.93431 l -6.449598,-4.80603 c 0.131058,-0.39728 0.336168,-0.80537 0.620735,-1.18726 l -1.272947,-0.94855 c -1.80226,2.4186 -1.122609,4.87183 -0.147167,7.14953 -2.445704,-0.30463 -5.006662,-0.2332 -6.808923,2.1854 -1.818071,2.43982 -1.15423,4.91427 -0.162984,7.17076 -2.445704,-0.30463 -4.990851,-0.25441 -6.793112,2.16419 l 1.272946,0.94856 c 0.300378,-0.4031 0.616968,-0.69513 0.960194,-0.93432 l 6.449597,4.80603 c -0.131064,0.39729 -0.320363,0.78416 -0.620741,1.18727 l 1.272947,0.94855 c 1.80226,-2.4186 1.12261,-4.87183 0.131358,-7.12831 2.44571,0.30462 5.006667,0.23318 6.824738,-2.20663 z m -8.061996,-6.00754 c 0.284567,-0.38188 0.616968,-0.69512 0.960188,-0.93431 l 6.470812,4.82184 c -0.131057,0.39728 -0.336167,0.80538 -0.620734,1.18726 -0.284568,0.38188 -0.616974,0.69513 -0.960194,0.93432 l -6.470813,-4.82184 c 0.131057,-0.39728 0.336173,-0.80538 0.620741,-1.18727 z m 6.192997,-6.27398 4.815982,3.58872 c -1.073733,0.15679 -2.307193,-0.003 -3.62011,-0.18986 -0.532856,-1.18898 -1.039089,-2.32512 -1.195872,-3.39886 z m 0.142059,4.85734 c 0.554071,1.20478 1.060298,2.34094 1.217087,3.41466 l -4.837197,-3.60452 c 1.073726,-0.15679 2.322996,-0.0178 3.62011,0.18986 z m -6.971907,9.35616 c 0.569882,1.18357 1.054899,2.3039 1.211688,3.37763 l -4.794766,-3.5729 c 1.073727,-0.15679 2.28597,-0.0124 3.583078,0.19527 z m 1.075035,-1.44268 c -0.575287,-1.22059 -1.081521,-2.35674 -1.2225,-3.45168 l 4.87963,3.63614 c -1.089537,0.178 -2.322997,0.0178 -3.65713,-0.18446 z"
           id="path3763" />
        <circle
           id="circle3775"
           style="fill:#008000;stroke-width:0.11722045"
           cx="36.973255"
           cy="131.56641"
           r="1.7898533" />
        <circle
           id="circle3777"
           style="fill:#008000;stroke-width:0.11722045"
           cx="39.121082"
           cy="128.29353"
           r="1.7898533" />
        <circle
           id="circle3779"
           style="fill:#008000;stroke-width:0.11722045"
           cx="43.928116"
           cy="122.1569"
           r="1.7898533" />
        <circle
           r="1.7898533"
           cy="137.80533"
           cx="32.268497"
           style="fill:#008000;stroke-width:0.11722045"
           id="path3773" />
      </g>
      <g
         style="fill:#008e01;fill-opacity:1;filter:url(#filter6495)"
         transform="matrix(-1.1835933,0,0,1.1835933,150.17891,-5.2896332)"
         id="g5933">
        <path
           id="path5923"
           d="m 42.838449,133.41257 c 1.802261,-2.4186 1.13842,-4.89305 0.147168,-7.14953 2.461515,0.28341 5.006661,0.23319 6.808922,-2.18541 l -1.272946,-0.94856 c -0.284568,0.38189 -0.616976,0.69512 -0.960187,0.93431 l -6.449598,-4.80603 c 0.131058,-0.39728 0.336168,-0.80537 0.620735,-1.18726 l -1.272947,-0.94855 c -1.80226,2.4186 -1.122609,4.87183 -0.147167,7.14953 -2.445704,-0.30463 -5.006662,-0.2332 -6.808923,2.1854 -1.818071,2.43982 -1.15423,4.91427 -0.162984,7.17076 -2.445704,-0.30463 -4.990851,-0.25441 -6.793112,2.16419 l 1.272946,0.94856 c 0.300378,-0.4031 0.616968,-0.69513 0.960194,-0.93432 l 6.449597,4.80603 c -0.131064,0.39729 -0.320363,0.78416 -0.620741,1.18727 l 1.272947,0.94855 c 1.80226,-2.4186 1.12261,-4.87183 0.131358,-7.12831 2.44571,0.30462 5.006667,0.23318 6.824738,-2.20663 z m -8.061996,-6.00754 c 0.284567,-0.38188 0.616968,-0.69512 0.960188,-0.93431 l 6.470812,4.82184 c -0.131057,0.39728 -0.336167,0.80538 -0.620734,1.18726 -0.284568,0.38188 -0.616974,0.69513 -0.960194,0.93432 l -6.470813,-4.82184 c 0.131057,-0.39728 0.336173,-0.80538 0.620741,-1.18727 z m 6.192997,-6.27398 4.815982,3.58872 c -1.073733,0.15679 -2.307193,-0.003 -3.62011,-0.18986 -0.532856,-1.18898 -1.039089,-2.32512 -1.195872,-3.39886 z m 0.142059,4.85734 c 0.554071,1.20478 1.060298,2.34094 1.217087,3.41466 l -4.837197,-3.60452 c 1.073726,-0.15679 2.322996,-0.0178 3.62011,0.18986 z m -6.971907,9.35616 c 0.569882,1.18357 1.054899,2.3039 1.211688,3.37763 l -4.794766,-3.5729 c 1.073727,-0.15679 2.28597,-0.0124 3.583078,0.19527 z m 1.075035,-1.44268 c -0.575287,-1.22059 -1.081521,-2.35674 -1.2225,-3.45168 l 4.87963,3.63614 c -1.089537,0.178 -2.322997,0.0178 -3.65713,-0.18446 z"
           style="fill:#008e01;fill-opacity:1;stroke-width:0.26458332" />
        <circle
           r="1.7898533"
           cy="131.56641"
           cx="36.973255"
           style="fill:#008e01;fill-opacity:1;stroke-width:0.11722045"
           id="circle5925" />
        <circle
           r="1.7898533"
           cy="128.29353"
           cx="39.121082"
           style="fill:#008e01;fill-opacity:1;stroke-width:0.11722045"
           id="circle5927" />
        <circle
           r="1.7898533"
           cy="122.1569"
           cx="43.928116"
           style="fill:#008e01;fill-opacity:1;stroke-width:0.11722045"
           id="circle5929" />
        <circle
           id="circle5931"
           style="fill:#008e01;fill-opacity:1;stroke-width:0.11722045"
           cx="32.268497"
           cy="137.80533"
           r="1.7898533" />
      </g>
      <circle
         id="path3781"
         style="fill:none;stroke:url(#linearGradient6514);stroke-width:2.86500001;stroke-miterlimit:4;stroke-dasharray:none;stroke-opacity:1"
         r="15.852987"
         cy="148.5"
         cx="105" />
    </g>
  </g>
</svg>
